<svg xmlns="http://www.w3.org/2000/svg" viewBox="0 0 993.84 986.41"><g id="Layer_2" data-name="Layer 2"><g id="Layer_1-2" data-name="Layer 1"><path d="M993.52,539.24c0,59.53-.79,119.09.3,178.61.63,34.24-14.84,55.34-49.59,68.24-49.57,18.39-100.34,26.31-153.05,20.31-62.24-7.08-106.82-44.11-114.94-101.17-16.87-118.46-7.31-237.74-5.75-356.6.66-50,49.15-44.3,85.64-45.92,37.62-1.68,54.85,16.42,54.5,51.94-.9,91,0,181.92.25,272.88,0,13.22.38,26.47,1.57,39.63.92,10.12,4.25,20.89,17.24,21.86,17.09,1.27,20.74-11.48,21.09-23.28,1.08-36.36,1.17-72.75,1.27-109.12q.29-99.24.09-198.47c-.18-59.54,49.48-49.29,88.52-53.85,42.88-5,52.65,19.07,52.68,51.36q.06,91.79,0,183.58Z"/><path d="M.66,557.77c0-59.53,1.59-119.1-.59-178.56-1.3-35.76,14.73-55.5,50.88-65.38C110.64,297.5,171.46,294,232.39,302.42c58,8,91,40,92.2,93.89,2.66,117.34,1.49,234.77,1.77,352.16.12,52.76-41.23,47.95-79.61,49.43-42.46,1.64-56.47-16.48-55.69-54,1.8-86,.61-172,.46-257.94,0-13.21.09-26.53-1.65-39.6-2.09-15.66-9.06-30.79-29.19-29.44-19.77,1.31-17.85,18.47-18,31-.64,71.1-.46,142.2-.54,213.3,0,19.84.1,39.68,0,59.52-.36,71-33.46,93.36-108.7,75.36C3.32,788.86,1.62,768.43.83,746.27c-.12-3.3-.16-6.61-.16-9.92Q.66,647.06.66,557.77Z"/><path d="M564.58,495c.07,142.06.31,284.12-.05,426.18-.15,58.08-9,63.14-78.18,65.18-52.68,1.56-56.79-27-56.73-63.92.5-282.47.05-564.95.43-847.42.08-58.55,48.17-88.15,108.39-69.41,30.74,9.57,25.83,32.56,25.88,53.29C564.69,204.25,564.52,349.62,564.58,495Z"/></g></g></svg>